<svg width="22" height="20" viewBox="0 0 22 20" fill="none" xmlns="http://www.w3.org/2000/svg">
<path d="M21.3534 17.7454L12.1628 1.06669C11.6948 0.217354 10.4748 0.217354 10.0068 1.06669L0.817436 17.7454C0.365436 18.5654 0.958769 19.5694 1.89477 19.5694H20.2748C21.2121 19.5707 21.8054 18.5654 21.3534 17.7454ZM12.5934 16.1214C12.5934 16.3267 12.4268 16.4934 12.2214 16.4934H9.8881C9.68277 16.4934 9.5161 16.3267 9.5161 16.1214V13.912C9.5161 13.7067 9.68277 13.54 9.8881 13.54H12.2214C12.4268 13.54 12.5934 13.7067 12.5934 13.912V16.1214ZM12.5374 11.952C12.5294 12.152 12.3641 12.3094 12.1641 12.3094H11.0548H9.94544C9.74544 12.3094 9.58144 12.152 9.5721 11.952L9.35077 6.79069C9.34144 6.57869 9.51077 6.40135 9.7241 6.40135H11.0561H12.3881C12.6001 6.40135 12.7694 6.57869 12.7614 6.79069L12.5374 11.952Z" fill="#2E2D29"/>
</svg>